<?xml version="1.0" encoding="UTF-8"?>
<svg id="Layer_1" data-name="Layer 1" xmlns="http://www.w3.org/2000/svg" version="1.1" viewBox="0 0 500 500">
  <defs>
    <style>
      .cls-1 {
        fill: #000;
      }

      .cls-1, .cls-2, .cls-3, .cls-4 {
        stroke-width: 0px;
      }

      .cls-2 {
        fill: #f4bb3a;
      }

      .cls-3 {
        fill: #fcc062;
      }

      .cls-4 {
        fill: #ffbdb3;
      }
    </style>
  </defs>
  <g id="ten">
    <path class="cls-4" d="M161,89v95c0,6.6-5.58,12-12.4,12H49.4c-6.82,0-12.4-5.4-12.4-12v-95c0-6.6,5.58-12,12.4-12h99.2c6.82,0,12.4,5.4,12.4,12Z"/>
  </g>
  <g id="sac">
    <path class="cls-2" d="M191,95.1v70.8c0,25.15-12.21,47.6-31,61.69V90c0-6.6-5.4-12-12-12H54c-6.6,0-12,5.4-12,12v140.4c-21.04-13.8-35-37.6-35-64.5v-70.8C7,52.7,41.7,18,84.1,18h29.8c42.4,0,77.1,34.7,77.1,77.1Z"/>
    <path class="cls-3" d="M74.98,77c-.22,1.75-.55,3.46-1,5.13-4.1,15.62-17.49,27.52-33.98,29.56v-22.69c0-6.6,5.45-12,12.1-12h22.88Z"/>
    <path class="cls-3" d="M131.98,77c-.79.97-1.61,1.9-2.48,2.79-7.33,7.53-17.62,12.21-29,12.21-10.15,0-19.43-3.73-26.52-9.87-1.8-1.56-3.47-3.27-4.96-5.13h62.96Z"/>
    <path class="cls-3" d="M161,89v22.2c-15.87-3.2-28.36-15.64-31.5-31.41-.18-.92-.33-1.85-.45-2.79h19.85c6.65,0,12.1,5.4,12.1,12Z"/>
  </g>
  <ellipse class="cls-1" cx="75.5" cy="121.5" rx="11.5" ry="4.5"/>
  <ellipse class="cls-1" cx="122.5" cy="121.5" rx="11.5" ry="4.5"/>
</svg>